G04 EAGLE Gerber RS-274X export*
G75*
%MOMM*%
%FSLAX34Y34*%
%LPD*%
%INSoldermask Bottom*%
%IPPOS*%
%AMOC8*
5,1,8,0,0,1.08239X$1,22.5*%
G01*
%ADD10P,2.034460X8X22.500000*%
%ADD11C,1.879600*%
%ADD12P,2.034460X8X202.500000*%
%ADD13C,2.082800*%
%ADD14C,3.505200*%
%ADD15C,2.066800*%
%ADD16R,2.066800X2.066800*%
%ADD17C,1.879600*%
%ADD18P,2.034460X8X292.500000*%
%ADD19P,2.034460X8X112.500000*%
%ADD20R,2.703200X2.703200*%
%ADD21C,3.203200*%
%ADD22C,3.403200*%
%ADD23P,2.453562X8X202.500000*%
%ADD24C,2.366800*%
%ADD25C,4.203200*%
%ADD26C,1.766800*%
%ADD27C,2.353200*%


D10*
X767080Y640080D03*
D11*
X741680Y640080D03*
D12*
X670560Y640080D03*
D11*
X695960Y640080D03*
D13*
X729742Y386080D02*
X748538Y386080D01*
X748538Y411480D02*
X729742Y411480D01*
X729742Y436880D02*
X748538Y436880D01*
D14*
X589280Y411480D03*
D13*
X596900Y1806702D02*
X596900Y1825498D01*
X571500Y1825498D02*
X571500Y1806702D01*
X546100Y1806702D02*
X546100Y1825498D01*
X622300Y1825498D02*
X622300Y1806702D01*
X647700Y1806702D02*
X647700Y1825498D01*
X673100Y1825498D02*
X673100Y1806702D01*
X698500Y1806702D02*
X698500Y1825498D01*
X723900Y1825498D02*
X723900Y1806702D01*
X749300Y1806702D02*
X749300Y1825498D01*
X774700Y1825498D02*
X774700Y1806702D01*
X800100Y1806702D02*
X800100Y1825498D01*
X825500Y1825498D02*
X825500Y1806702D01*
X850900Y1806702D02*
X850900Y1825498D01*
X876300Y1825498D02*
X876300Y1806702D01*
X879602Y772160D02*
X898398Y772160D01*
X898398Y797560D02*
X879602Y797560D01*
X879602Y822960D02*
X898398Y822960D01*
X898398Y848360D02*
X879602Y848360D01*
X879602Y873760D02*
X898398Y873760D01*
X646938Y909320D02*
X628142Y909320D01*
X628142Y934720D02*
X646938Y934720D01*
X646938Y960120D02*
X628142Y960120D01*
X628142Y985520D02*
X646938Y985520D01*
X724662Y817880D02*
X743458Y817880D01*
X743458Y843280D02*
X724662Y843280D01*
X724662Y868680D02*
X743458Y868680D01*
X743458Y894080D02*
X724662Y894080D01*
X727202Y1074420D02*
X745998Y1074420D01*
X745998Y1049020D02*
X727202Y1049020D01*
X727202Y1023620D02*
X745998Y1023620D01*
X745998Y998220D02*
X727202Y998220D01*
X727202Y972820D02*
X745998Y972820D01*
X745998Y947420D02*
X727202Y947420D01*
D15*
X406400Y585500D03*
X381000Y585500D03*
X279400Y585500D03*
D16*
X203200Y585500D03*
D15*
X406400Y687100D03*
X381000Y687100D03*
X279400Y687100D03*
D16*
X203200Y687100D03*
D12*
X487680Y571500D03*
X462280Y571500D03*
D10*
X1203960Y1536700D03*
X1229360Y1536700D03*
X1130300Y1536700D03*
X1155700Y1536700D03*
X1054100Y1536700D03*
X1079500Y1536700D03*
X977900Y1536700D03*
X1003300Y1536700D03*
X901700Y1536700D03*
X927100Y1536700D03*
X825500Y1536700D03*
X850900Y1536700D03*
X749300Y1536700D03*
X774700Y1536700D03*
D12*
X487680Y685800D03*
X462280Y685800D03*
D10*
X673100Y1536700D03*
X698500Y1536700D03*
X596900Y1536700D03*
X622300Y1536700D03*
X520700Y1536700D03*
X546100Y1536700D03*
X444500Y1536700D03*
X469900Y1536700D03*
X368300Y1536700D03*
X393700Y1536700D03*
X292100Y1536700D03*
X317500Y1536700D03*
X203200Y1536700D03*
X228600Y1536700D03*
D11*
X38100Y850900D03*
X38100Y825500D03*
X63500Y850900D03*
X63500Y825500D03*
X88900Y825500D03*
X88900Y850900D03*
X114300Y850900D03*
X114300Y825500D03*
X139700Y825500D03*
X139700Y850900D03*
X165100Y850900D03*
X165100Y825500D03*
X190500Y825500D03*
X215900Y825500D03*
X241300Y825500D03*
X266700Y825500D03*
X292100Y825500D03*
X317500Y825500D03*
X342900Y825500D03*
X368300Y825500D03*
X393700Y825500D03*
X419100Y825500D03*
X190500Y850900D03*
X215900Y850900D03*
X241300Y850900D03*
X266700Y850900D03*
X292100Y850900D03*
X317500Y850900D03*
X342900Y850900D03*
X368300Y850900D03*
X393700Y850900D03*
X419100Y850900D03*
X444500Y825500D03*
X469900Y825500D03*
X495300Y825500D03*
X520700Y825500D03*
X546100Y825500D03*
X546100Y850900D03*
X520700Y850900D03*
X495300Y850900D03*
X469900Y850900D03*
X444500Y850900D03*
X165100Y1155700D03*
X165100Y1181100D03*
X190500Y1181100D03*
X190500Y1155700D03*
X215900Y1155700D03*
X215900Y1181100D03*
X241300Y1181100D03*
X241300Y1155700D03*
X266700Y1181100D03*
X266700Y1155700D03*
X292100Y1181100D03*
X292100Y1155700D03*
X317500Y1181100D03*
X317500Y1155700D03*
X342900Y1181100D03*
X342900Y1155700D03*
X368300Y1181100D03*
X368300Y1155700D03*
X393700Y1181100D03*
X393700Y1155700D03*
X419100Y1181100D03*
X419100Y1155700D03*
X444500Y1181100D03*
X444500Y1155700D03*
X469900Y1181100D03*
X469900Y1155700D03*
X495300Y1181100D03*
X495300Y1155700D03*
X520700Y1181100D03*
X520700Y1155700D03*
X546100Y1181100D03*
X546100Y1155700D03*
X546100Y1130300D03*
X520700Y1130300D03*
X520700Y1104900D03*
X546100Y1104900D03*
X546100Y1079500D03*
X520700Y1079500D03*
X520700Y952500D03*
X546100Y952500D03*
X520700Y977900D03*
X520700Y1003300D03*
X546100Y1003300D03*
X546100Y977900D03*
D17*
X1065276Y182880D02*
X1082040Y182880D01*
X1082040Y157480D02*
X1065276Y157480D01*
X1158240Y157480D02*
X1175004Y157480D01*
X1175004Y182880D02*
X1158240Y182880D01*
X1082040Y254000D02*
X1065276Y254000D01*
X1065276Y228600D02*
X1082040Y228600D01*
X1158240Y228600D02*
X1175004Y228600D01*
X1175004Y254000D02*
X1158240Y254000D01*
X1082040Y325120D02*
X1065276Y325120D01*
X1065276Y299720D02*
X1082040Y299720D01*
X1158240Y299720D02*
X1175004Y299720D01*
X1175004Y325120D02*
X1158240Y325120D01*
X1082040Y396240D02*
X1065276Y396240D01*
X1065276Y370840D02*
X1082040Y370840D01*
X1158240Y370840D02*
X1175004Y370840D01*
X1175004Y396240D02*
X1158240Y396240D01*
X1082040Y464820D02*
X1065276Y464820D01*
X1065276Y439420D02*
X1082040Y439420D01*
X1158240Y439420D02*
X1175004Y439420D01*
X1175004Y464820D02*
X1158240Y464820D01*
X1082040Y535940D02*
X1065276Y535940D01*
X1065276Y510540D02*
X1082040Y510540D01*
X1158240Y510540D02*
X1175004Y510540D01*
X1175004Y535940D02*
X1158240Y535940D01*
X1082040Y607060D02*
X1065276Y607060D01*
X1065276Y581660D02*
X1082040Y581660D01*
X1158240Y581660D02*
X1175004Y581660D01*
X1175004Y607060D02*
X1158240Y607060D01*
X1079500Y678180D02*
X1062736Y678180D01*
X1062736Y652780D02*
X1079500Y652780D01*
X1155700Y652780D02*
X1172464Y652780D01*
X1172464Y678180D02*
X1155700Y678180D01*
X1082040Y749300D02*
X1065276Y749300D01*
X1065276Y723900D02*
X1082040Y723900D01*
X1158240Y723900D02*
X1175004Y723900D01*
X1175004Y749300D02*
X1158240Y749300D01*
X1082040Y817880D02*
X1065276Y817880D01*
X1065276Y792480D02*
X1082040Y792480D01*
X1158240Y792480D02*
X1175004Y792480D01*
X1175004Y817880D02*
X1158240Y817880D01*
X1082040Y881380D02*
X1065276Y881380D01*
X1065276Y855980D02*
X1082040Y855980D01*
X1158240Y855980D02*
X1175004Y855980D01*
X1175004Y881380D02*
X1158240Y881380D01*
X1082040Y45720D02*
X1065276Y45720D01*
X1065276Y20320D02*
X1082040Y20320D01*
X1158240Y20320D02*
X1175004Y20320D01*
X1175004Y45720D02*
X1158240Y45720D01*
X1082040Y114300D02*
X1065276Y114300D01*
X1065276Y88900D02*
X1082040Y88900D01*
X1158240Y88900D02*
X1175004Y88900D01*
X1175004Y114300D02*
X1158240Y114300D01*
X685800Y190500D02*
X685800Y207264D01*
X660400Y207264D02*
X660400Y190500D01*
X660400Y114300D02*
X660400Y97536D01*
X685800Y97536D02*
X685800Y114300D01*
X754380Y190500D02*
X754380Y207264D01*
X728980Y207264D02*
X728980Y190500D01*
X728980Y114300D02*
X728980Y97536D01*
X754380Y97536D02*
X754380Y114300D01*
X825500Y190500D02*
X825500Y207264D01*
X800100Y207264D02*
X800100Y190500D01*
X800100Y114300D02*
X800100Y97536D01*
X825500Y97536D02*
X825500Y114300D01*
X896620Y190500D02*
X896620Y207264D01*
X871220Y207264D02*
X871220Y190500D01*
X871220Y114300D02*
X871220Y97536D01*
X896620Y97536D02*
X896620Y114300D01*
X967740Y190500D02*
X967740Y207264D01*
X942340Y207264D02*
X942340Y190500D01*
X942340Y114300D02*
X942340Y97536D01*
X967740Y97536D02*
X967740Y114300D01*
X617220Y190500D02*
X617220Y207264D01*
X591820Y207264D02*
X591820Y190500D01*
X591820Y114300D02*
X591820Y97536D01*
X617220Y97536D02*
X617220Y114300D01*
X1206500Y1570736D02*
X1206500Y1587500D01*
X1231900Y1587500D02*
X1231900Y1570736D01*
X1231900Y1663700D02*
X1231900Y1680464D01*
X1206500Y1680464D02*
X1206500Y1663700D01*
X1130300Y1587500D02*
X1130300Y1570736D01*
X1155700Y1570736D02*
X1155700Y1587500D01*
X1155700Y1663700D02*
X1155700Y1680464D01*
X1130300Y1680464D02*
X1130300Y1663700D01*
X1054100Y1587500D02*
X1054100Y1570736D01*
X1079500Y1570736D02*
X1079500Y1587500D01*
X1079500Y1663700D02*
X1079500Y1680464D01*
X1054100Y1680464D02*
X1054100Y1663700D01*
X977900Y1587500D02*
X977900Y1570736D01*
X1003300Y1570736D02*
X1003300Y1587500D01*
X1003300Y1663700D02*
X1003300Y1680464D01*
X977900Y1680464D02*
X977900Y1663700D01*
X901700Y1587500D02*
X901700Y1570736D01*
X927100Y1570736D02*
X927100Y1587500D01*
X927100Y1663700D02*
X927100Y1680464D01*
X901700Y1680464D02*
X901700Y1663700D01*
X825500Y1587500D02*
X825500Y1570736D01*
X850900Y1570736D02*
X850900Y1587500D01*
X850900Y1663700D02*
X850900Y1680464D01*
X825500Y1680464D02*
X825500Y1663700D01*
X749300Y1587500D02*
X749300Y1570736D01*
X774700Y1570736D02*
X774700Y1587500D01*
X774700Y1663700D02*
X774700Y1680464D01*
X749300Y1680464D02*
X749300Y1663700D01*
X673100Y1587500D02*
X673100Y1570736D01*
X698500Y1570736D02*
X698500Y1587500D01*
X698500Y1663700D02*
X698500Y1680464D01*
X673100Y1680464D02*
X673100Y1663700D01*
X596900Y1587500D02*
X596900Y1570736D01*
X622300Y1570736D02*
X622300Y1587500D01*
X622300Y1663700D02*
X622300Y1680464D01*
X596900Y1680464D02*
X596900Y1663700D01*
X520700Y1587500D02*
X520700Y1570736D01*
X546100Y1570736D02*
X546100Y1587500D01*
X546100Y1663700D02*
X546100Y1680464D01*
X520700Y1680464D02*
X520700Y1663700D01*
X444500Y1587500D02*
X444500Y1570736D01*
X469900Y1570736D02*
X469900Y1587500D01*
X469900Y1663700D02*
X469900Y1680464D01*
X444500Y1680464D02*
X444500Y1663700D01*
X368300Y1587500D02*
X368300Y1570736D01*
X393700Y1570736D02*
X393700Y1587500D01*
X393700Y1663700D02*
X393700Y1680464D01*
X368300Y1680464D02*
X368300Y1663700D01*
X292100Y1587500D02*
X292100Y1570736D01*
X317500Y1570736D02*
X317500Y1587500D01*
X317500Y1663700D02*
X317500Y1680464D01*
X292100Y1680464D02*
X292100Y1663700D01*
X215900Y1587500D02*
X215900Y1570736D01*
X241300Y1570736D02*
X241300Y1587500D01*
X241300Y1663700D02*
X241300Y1680464D01*
X215900Y1680464D02*
X215900Y1663700D01*
D18*
X754380Y589280D03*
X754380Y487680D03*
D19*
X152400Y1536700D03*
X152400Y1612900D03*
X114300Y1638300D03*
X114300Y1714500D03*
X114300Y1536700D03*
X114300Y1612900D03*
X76200Y1638300D03*
X76200Y1714500D03*
X76200Y1536700D03*
X76200Y1612900D03*
X38100Y1638300D03*
X38100Y1714500D03*
X38100Y1536700D03*
X38100Y1612900D03*
D12*
X627380Y495300D03*
X525780Y495300D03*
D10*
X525780Y533400D03*
X627380Y533400D03*
X525780Y571500D03*
X627380Y571500D03*
D19*
X716280Y487680D03*
X716280Y589280D03*
D12*
X627380Y609600D03*
X525780Y609600D03*
D10*
X525780Y647700D03*
X627380Y647700D03*
X525780Y685800D03*
X627380Y685800D03*
D12*
X1244600Y1714500D03*
X1143000Y1714500D03*
X995680Y1264920D03*
X894080Y1264920D03*
D10*
X894080Y1231900D03*
X995680Y1231900D03*
D12*
X995680Y1297940D03*
X894080Y1297940D03*
D10*
X909320Y345440D03*
X985520Y345440D03*
X909320Y307340D03*
X985520Y307340D03*
X909320Y383540D03*
X985520Y383540D03*
X909320Y421640D03*
X985520Y421640D03*
X909320Y459740D03*
X985520Y459740D03*
X909320Y497840D03*
X985520Y497840D03*
X909320Y533400D03*
X985520Y533400D03*
X894080Y1336040D03*
X995680Y1336040D03*
X909320Y568960D03*
X985520Y568960D03*
X909320Y607060D03*
X985520Y607060D03*
X909320Y645160D03*
X985520Y645160D03*
X906780Y683260D03*
X982980Y683260D03*
X909320Y723900D03*
X985520Y723900D03*
X906780Y271780D03*
X982980Y271780D03*
D18*
X683260Y327660D03*
X683260Y251460D03*
X650240Y327660D03*
X650240Y251460D03*
X721360Y327660D03*
X721360Y251460D03*
X759460Y327660D03*
X759460Y251460D03*
D12*
X995680Y1165860D03*
X894080Y1165860D03*
D18*
X797560Y327660D03*
X797560Y251460D03*
X840740Y327660D03*
X840740Y251460D03*
D19*
X1211580Y1391920D03*
X1211580Y1493520D03*
D12*
X1168400Y1739900D03*
X1066800Y1739900D03*
D19*
X1153160Y1391920D03*
X1153160Y1493520D03*
D12*
X1079500Y1714500D03*
X977900Y1714500D03*
D19*
X1097280Y1391920D03*
X1097280Y1493520D03*
D12*
X1003300Y1739900D03*
X901700Y1739900D03*
D19*
X1038860Y1391920D03*
X1038860Y1493520D03*
D12*
X927100Y1714500D03*
X825500Y1714500D03*
D10*
X891540Y1201420D03*
X993140Y1201420D03*
D19*
X982980Y1391920D03*
X982980Y1493520D03*
D12*
X850900Y1739900D03*
X749300Y1739900D03*
D19*
X922020Y1391920D03*
X922020Y1493520D03*
D12*
X800100Y1714500D03*
X698500Y1714500D03*
D19*
X866140Y1391920D03*
X866140Y1493520D03*
D10*
X571500Y1714500D03*
X673100Y1714500D03*
D19*
X807720Y1391920D03*
X807720Y1493520D03*
D10*
X558800Y1739900D03*
X660400Y1739900D03*
D19*
X754380Y1333500D03*
X754380Y1435100D03*
D10*
X444500Y1714500D03*
X546100Y1714500D03*
D19*
X152400Y1638300D03*
X152400Y1714500D03*
X698500Y1333500D03*
X698500Y1435100D03*
D10*
X419100Y1739900D03*
X520700Y1739900D03*
D19*
X640080Y1333500D03*
X640080Y1435100D03*
D10*
X309880Y1714500D03*
X411480Y1714500D03*
D19*
X581660Y1333500D03*
X581660Y1435100D03*
D10*
X292100Y1739900D03*
X393700Y1739900D03*
D19*
X523240Y1333500D03*
X523240Y1435100D03*
D10*
X177800Y1714500D03*
X279400Y1714500D03*
D19*
X464820Y1333500D03*
X464820Y1435100D03*
D17*
X1033780Y1184402D02*
X1033780Y1167638D01*
X1084580Y1167638D02*
X1084580Y1184402D01*
X1059180Y1184402D02*
X1059180Y1167638D01*
X449580Y529082D02*
X449580Y512318D01*
X500380Y512318D02*
X500380Y529082D01*
X474980Y529082D02*
X474980Y512318D01*
X449580Y626618D02*
X449580Y643382D01*
X500380Y643382D02*
X500380Y626618D01*
X474980Y626618D02*
X474980Y643382D01*
D20*
X132080Y213360D03*
X132080Y40640D03*
X528320Y40640D03*
X528320Y213360D03*
D21*
X185420Y203200D03*
X482600Y50800D03*
D16*
X1071880Y1310640D03*
D15*
X1071880Y1285240D03*
X1071880Y1259840D03*
X1046480Y1259840D03*
X1046480Y1285240D03*
X1046480Y1310640D03*
X1046480Y1234440D03*
D16*
X1071880Y1234440D03*
D20*
X132080Y454660D03*
X132080Y281940D03*
X528320Y281940D03*
X528320Y454660D03*
D21*
X185420Y444500D03*
X482600Y292100D03*
D22*
X390400Y1257300D03*
X390400Y1469900D03*
D23*
X38100Y1306200D03*
X38100Y1331600D03*
X38100Y1357000D03*
X38100Y1382400D03*
X38100Y1407800D03*
X38100Y1433200D03*
X38100Y1458600D03*
D22*
X47500Y1257300D03*
D24*
X51050Y165311D03*
X51050Y114511D03*
X51050Y584411D03*
X51050Y533611D03*
X51050Y698711D03*
X51050Y647911D03*
D13*
X1227582Y279400D02*
X1246378Y279400D01*
X1246378Y254000D02*
X1227582Y254000D01*
X1227582Y228600D02*
X1246378Y228600D01*
X1246378Y304800D02*
X1227582Y304800D01*
X1227582Y330200D02*
X1246378Y330200D01*
X1246378Y355600D02*
X1227582Y355600D01*
X1227582Y381000D02*
X1246378Y381000D01*
X1246378Y406400D02*
X1227582Y406400D01*
X1227582Y431800D02*
X1246378Y431800D01*
X1246378Y457200D02*
X1227582Y457200D01*
X1227582Y482600D02*
X1246378Y482600D01*
X1246378Y508000D02*
X1227582Y508000D01*
X1227582Y533400D02*
X1246378Y533400D01*
X1246378Y558800D02*
X1227582Y558800D01*
X1227582Y584200D02*
X1246378Y584200D01*
X1246378Y609600D02*
X1227582Y609600D01*
X1227582Y635000D02*
X1246378Y635000D01*
X1246378Y660400D02*
X1227582Y660400D01*
X1227582Y685800D02*
X1246378Y685800D01*
X1246378Y711200D02*
X1227582Y711200D01*
X60198Y381000D02*
X41402Y381000D01*
X41402Y406400D02*
X60198Y406400D01*
X60198Y266700D02*
X41402Y266700D01*
X41402Y292100D02*
X60198Y292100D01*
X762000Y60198D02*
X762000Y41402D01*
X736600Y41402D02*
X736600Y60198D01*
X711200Y60198D02*
X711200Y41402D01*
X787400Y41402D02*
X787400Y60198D01*
X812800Y60198D02*
X812800Y41402D01*
X838200Y41402D02*
X838200Y60198D01*
X863600Y60198D02*
X863600Y41402D01*
X889000Y41402D02*
X889000Y60198D01*
X190500Y1809242D02*
X190500Y1828038D01*
X165100Y1828038D02*
X165100Y1809242D01*
X139700Y1809242D02*
X139700Y1828038D01*
X215900Y1828038D02*
X215900Y1809242D01*
X241300Y1809242D02*
X241300Y1828038D01*
X266700Y1828038D02*
X266700Y1809242D01*
D25*
X1242060Y1813560D03*
X22860Y0D03*
X1242060Y0D03*
X22860Y1813560D03*
D26*
X1242060Y960120D03*
X1242060Y985520D03*
X1242060Y1010920D03*
X1242060Y1036320D03*
X1242060Y1061720D03*
X1242060Y1087120D03*
D27*
X1262300Y922540D03*
X1262670Y1124550D03*
X881800Y922480D03*
X881800Y1125360D03*
M02*
