M48
;GenerationSoftware,Autodesk,EAGLE,9.5.2*%
;CreationDate,2020-02-07T18:57:51Z*%
FMAT,2
ICI,OFF
METRIC,TZ,000.000
T13C0.700
T12C0.800
T11C0.813
T10C1.000
T9C1.016
T8C1.200
T7C1.300
T6C1.500
T5C2.150
T4C3.000
T3C3.200
T2C3.302
T1C4.000
%
G90
M71
T1
X124206Y181356
X2286Y0
X124206Y0
X2286Y181356
T2
X58928Y41148
T3
X39040Y125730
X39040Y146990
X4750Y125730
T4
X18542Y20320
X48260Y5080
X18542Y44450
X48260Y29210
T5
X126230Y92254
X126267Y112455
X88180Y92248
X88180Y112536
T6
X13208Y21336
X13208Y4064
X52832Y21336
X13208Y45466
X13208Y28194
X52832Y28194
X52832Y45466
X52832Y4064
T7
X5105Y11451
X5105Y58441
X5105Y53361
X5105Y69871
X5105Y64791
X5105Y16531
T8
X3810Y143320
X3810Y140780
X3810Y138240
X3810Y133160
X3810Y130620
X3810Y135700
X3810Y145860
T9
X73660Y5080
X76200Y5080
X5080Y29210
X5080Y26670
X73914Y38608
X73914Y41148
X73914Y43688
X59690Y181610
X57150Y181610
X54610Y181610
X62230Y181610
X64770Y181610
X67310Y181610
X69850Y181610
X72390Y181610
X74930Y181610
X77470Y181610
X80010Y181610
X82550Y181610
X85090Y181610
X87630Y181610
X88900Y77216
X88900Y79756
X88900Y82296
X88900Y84836
X88900Y87376
X63754Y90932
X63754Y93472
X63754Y96012
X63754Y98552
X73406Y81788
X73406Y84328
X73406Y86868
X123698Y60960
X123698Y58420
X123698Y55880
X123698Y53340
X123698Y50800
X123698Y48260
X123698Y45720
X123698Y43180
X78740Y5080
X123698Y38100
X123698Y35560
X123698Y33020
X123698Y30480
X123698Y22860
X123698Y25400
X123698Y27940
X5080Y40640
X5080Y38100
X123698Y71120
X123698Y68580
X123698Y66040
X123698Y63500
X73660Y94742
X73660Y97282
X73660Y99822
X73660Y102362
X26670Y181864
X73660Y104902
X123698Y40640
X73660Y107442
X73406Y89408
X71120Y5080
X24130Y181864
X21590Y181864
X13970Y181864
X16510Y181864
X19050Y181864
X88900Y5080
X86360Y5080
X83820Y5080
X81280Y5080
T10
X20320Y68710
X27940Y68710
X38100Y68710
X107188Y125984
X40640Y68710
X20320Y58550
X107188Y123444
X40640Y58550
X104648Y131064
X104648Y128524
X104648Y125984
X107188Y128524
X107188Y131064
X27940Y58550
X38100Y58550
X104648Y123444
T11
X76708Y64008
X74168Y64008
X67056Y64008
X69596Y64008
X48768Y57150
X46228Y57150
X120396Y153670
X122936Y153670
X113030Y153670
X115570Y153670
X105410Y153670
X107950Y153670
X97790Y153670
X100330Y153670
X90170Y153670
X92710Y153670
X82550Y153670
X85090Y153670
X74930Y153670
X77470Y153670
X48768Y68580
X46228Y68580
X67310Y153670
X69850Y153670
X59690Y153670
X62230Y153670
X52070Y153670
X54610Y153670
X44450Y153670
X46990Y153670
X36830Y153670
X39370Y153670
X29210Y153670
X31750Y153670
X20320Y153670
X22860Y153670
X58166Y143510
X29210Y173990
X39370Y173990
X52324Y133350
X52324Y143510
X17780Y171450
X27940Y171450
X46482Y133350
X46482Y143510
X103378Y117602
X108458Y117602
X105918Y117602
X44958Y52070
X50038Y52070
X47498Y52070
X44958Y63500
X50038Y63500
X47498Y63500
X97790Y171450
X108204Y18288
X108204Y15748
X115824Y15748
X115824Y18288
X108204Y25400
X108204Y22860
X115824Y22860
X115824Y25400
X108204Y32512
X108204Y29972
X115824Y29972
X115824Y32512
X108204Y39624
X108204Y37084
X115824Y37084
X115824Y39624
X108204Y46482
X108204Y43942
X115824Y43942
X115824Y46482
X108204Y53594
X108204Y51054
X115824Y51054
X115824Y53594
X108204Y60706
X108204Y58166
X115824Y58166
X115824Y60706
X107950Y67818
X107950Y65278
X115570Y65278
X115570Y67818
X108204Y74930
X108204Y72390
X115824Y72390
X115824Y74930
X108204Y81788
X108204Y79248
X115824Y79248
X115824Y81788
X108204Y88138
X108204Y85598
X115824Y85598
X115824Y88138
X108204Y4572
X108204Y2032
X115824Y2032
X115824Y4572
X108204Y11430
X108204Y8890
X115824Y8890
X115824Y11430
X68580Y19050
X66040Y19050
X66040Y11430
X68580Y11430
X75438Y19050
X72898Y19050
X72898Y11430
X75438Y11430
X82550Y19050
X80010Y19050
X80010Y11430
X82550Y11430
X89662Y19050
X87122Y19050
X87122Y11430
X89662Y11430
X96774Y19050
X94234Y19050
X94234Y11430
X96774Y11430
X61722Y19050
X59182Y19050
X59182Y11430
X61722Y11430
X120650Y158750
X123190Y158750
X123190Y166370
X120650Y166370
X113030Y158750
X115570Y158750
X115570Y166370
X113030Y166370
X105410Y158750
X107950Y158750
X107950Y166370
X105410Y166370
X97790Y158750
X100330Y158750
X100330Y166370
X97790Y166370
X90170Y158750
X92710Y158750
X92710Y166370
X90170Y166370
X82550Y158750
X85090Y158750
X85090Y166370
X82550Y166370
X74930Y158750
X77470Y158750
X77470Y166370
X74930Y166370
X67310Y158750
X69850Y158750
X69850Y166370
X67310Y166370
X59690Y158750
X62230Y158750
X62230Y166370
X59690Y166370
X52070Y158750
X54610Y158750
X54610Y166370
X52070Y166370
X44450Y158750
X46990Y158750
X46990Y166370
X44450Y166370
X36830Y158750
X39370Y158750
X39370Y166370
X36830Y166370
X29210Y158750
X31750Y158750
X31750Y166370
X29210Y166370
X21590Y158750
X24130Y158750
X24130Y166370
X21590Y166370
X75438Y58928
X75438Y48768
X15240Y153670
X15240Y161290
X11430Y163830
X11430Y171450
X11430Y153670
X11430Y161290
X7620Y163830
X7620Y171450
X7620Y153670
X7620Y161290
X3810Y163830
X3810Y171450
X3810Y153670
X3810Y161290
X62738Y49530
X52578Y49530
X52578Y53340
X62738Y53340
X52578Y57150
X62738Y57150
X71628Y48768
X71628Y58928
X62738Y60960
X52578Y60960
X52578Y64770
X62738Y64770
X52578Y68580
X62738Y68580
X124460Y171450
X114300Y171450
X99568Y126492
X89408Y126492
X89408Y123190
X99568Y123190
X99568Y129794
X89408Y129794
X90932Y34544
X98552Y34544
X90932Y30734
X98552Y30734
X90932Y38354
X98552Y38354
X90932Y42164
X98552Y42164
X90932Y45974
X98552Y45974
X90932Y49784
X98552Y49784
X90932Y53340
X98552Y53340
X89408Y133604
X99568Y133604
X90932Y56896
X98552Y56896
X90932Y60706
X98552Y60706
X90932Y64516
X98552Y64516
X90678Y68326
X98298Y68326
X90932Y72390
X98552Y72390
X90678Y27178
X98298Y27178
X68326Y32766
X68326Y25146
X65024Y32766
X65024Y25146
X72136Y32766
X72136Y25146
X75946Y32766
X75946Y25146
X99568Y116586
X89408Y116586
X79756Y32766
X79756Y25146
X84074Y32766
X84074Y25146
X121158Y139192
X121158Y149352
X116840Y173990
X106680Y173990
X115316Y139192
X115316Y149352
X107950Y171450
X109728Y139192
X109728Y149352
X100330Y173990
X90170Y173990
X103886Y139192
X103886Y149352
X92710Y171450
X82550Y171450
X89154Y120142
X99314Y120142
X98298Y139192
X98298Y149352
X85090Y173990
X74930Y173990
X92202Y139192
X92202Y149352
X80010Y171450
X69850Y171450
X86614Y139192
X86614Y149352
X57150Y171450
X67310Y171450
X80772Y139192
X80772Y149352
X55880Y173990
X66040Y173990
X75438Y133350
X75438Y143510
X44450Y171450
X54610Y171450
X15240Y163830
X15240Y171450
X69850Y133350
X69850Y143510
X41910Y173990
X52070Y173990
X64008Y133350
X64008Y143510
X30988Y171450
X41148Y171450
X58166Y133350
T12
X3810Y85090
X3810Y82550
X6350Y85090
X6350Y82550
X8890Y82550
X8890Y85090
X11430Y85090
X11430Y82550
X13970Y82550
X13970Y85090
X16510Y85090
X16510Y82550
X19050Y82550
X21590Y82550
X24130Y82550
X26670Y82550
X29210Y82550
X31750Y82550
X34290Y82550
X54610Y100330
X52070Y100330
X52070Y97790
X54610Y95250
X52070Y95250
X52070Y107950
X54610Y97790
X54610Y107950
X54610Y110490
X52070Y110490
X52070Y113030
X54610Y113030
X54610Y115570
X54610Y118110
X52070Y115570
X52070Y118110
X49530Y115570
X49530Y118110
X46990Y115570
X46990Y118110
X44450Y115570
X44450Y118110
X41910Y115570
X41910Y118110
X39370Y115570
X39370Y118110
X36830Y115570
X36830Y118110
X34290Y115570
X34290Y118110
X31750Y115570
X31750Y118110
X29210Y115570
X29210Y118110
X26670Y115570
X26670Y118110
X24130Y115570
X24130Y118110
X21590Y118110
X21590Y115570
X19050Y115570
X19050Y118110
X16510Y118110
X16510Y115570
X44450Y85090
X46990Y85090
X49530Y85090
X52070Y85090
X54610Y85090
X54610Y82550
X52070Y82550
X49530Y82550
X46990Y82550
X44450Y82550
X41910Y85090
X39370Y85090
X36830Y85090
X34290Y85090
X31750Y85090
X29210Y85090
X26670Y85090
X24130Y85090
X21590Y85090
X19050Y85090
X41910Y82550
X39370Y82550
X36830Y82550
T13
X124206Y96012
X124206Y98552
X124206Y101092
X124206Y103632
X124206Y106172
X124206Y108712
M30